<?xml version="1.0" encoding="iso-8859-1"?>
<!-- Generator: Adobe Illustrator 19.0.0, SVG Export Plug-In . SVG Version: 6.00 Build 0)  -->
<svg version="1.1" id="Capa_1" xmlns="http://www.w3.org/2000/svg" xmlns:xlink="http://www.w3.org/1999/xlink" x="0px" y="0px"
	 viewBox="0 0 497.371 497.371" style="enable-background:new 0 0 497.371 497.371;" xml:space="preserve">
<path style="fill:#F15E75;" d="M481.28,205.166c0,92.16-105.326,166.766-234.057,166.766c-8.777,0-16.091,0-23.406-1.463
	l-122.88,87.771L122.88,345.6C57.051,316.343,13.166,263.68,13.166,205.166c0-92.16,105.326-166.766,234.057-166.766
	C375.954,38.4,481.28,113.006,481.28,205.166z"/>
<path style="fill:#EF3956;" d="M481.28,205.166c0,1.463,0,2.926,0,4.389c-35.109-59.977-118.491-102.4-215.04-102.4
	c-127.269,0-231.131,73.143-234.057,162.377c-11.703-20.48-19.017-42.423-19.017-64.366c0-92.16,105.326-166.766,234.057-166.766
	C375.954,38.4,481.28,113.006,481.28,205.166z"/>
<path d="M92.16,471.406c-4.389-2.926-7.314-8.777-5.851-14.629l20.48-102.4C39.497,320.731,0,265.143,0,205.166
	C0,105.691,111.177,23.771,248.686,23.771s248.686,81.92,248.686,181.394S386.194,386.56,248.686,386.56c-7.314,0-13.166,0-19.017,0
	l-121.417,84.846C103.863,474.331,98.011,474.331,92.16,471.406z M247.223,53.029c-121.417,0-219.429,68.754-219.429,152.137
	c0,51.2,38.034,99.474,100.937,127.269c5.851,2.926,10.24,8.777,8.777,16.091l-14.629,77.531l93.623-67.291
	c2.926-1.463,5.851-2.926,8.777-2.926c7.314,0,14.629,1.463,21.943,1.463c121.417,0,219.429-68.754,219.429-152.137
	S368.64,53.029,247.223,53.029z"/>
<circle style="fill:#FFFFFF;" cx="119.954" cy="202.24" r="35.109"/>
<path style="fill:#C0D0D6;" d="M150.674,184.686c-4.389-1.463-7.314-1.463-11.703-1.463c-19.017,0-35.109,16.091-35.109,35.109
	c0,5.851,1.463,11.703,4.389,16.091c-13.166-4.389-23.406-17.554-23.406-32.183c0-19.017,16.091-35.109,35.109-35.109
	C133.12,167.131,144.823,174.446,150.674,184.686z"/>
<path d="M119.954,250.514c-27.794,0-49.737-21.943-49.737-49.737s21.943-49.737,49.737-49.737s49.737,21.943,49.737,49.737
	C169.691,228.571,147.749,250.514,119.954,250.514z M119.954,180.297c-11.703,0-20.48,8.777-20.48,20.48s8.777,20.48,20.48,20.48
	s20.48-8.777,20.48-20.48C140.434,190.537,131.657,180.297,119.954,180.297z"/>
<circle style="fill:#FFFFFF;" cx="235.52" cy="202.24" r="35.109"/>
<path style="fill:#C0D0D6;" d="M266.24,184.686c-2.926-1.463-7.314-1.463-11.703-1.463c-19.017,0-35.109,16.091-35.109,35.109
	c0,5.851,1.463,11.703,4.389,16.091c-13.166-4.389-23.406-17.554-23.406-32.183c0-19.017,16.091-35.109,35.109-35.109
	C250.149,167.131,260.389,174.446,266.24,184.686z"/>
<path d="M235.52,250.514c-27.794,0-49.737-21.943-49.737-49.737s21.943-49.737,49.737-49.737s49.737,21.943,49.737,49.737
	S263.314,250.514,235.52,250.514z M235.52,180.297c-11.703,0-20.48,8.777-20.48,20.48s8.777,20.48,20.48,20.48
	c11.703,0,20.48-8.777,20.48-20.48C257.463,190.537,247.223,180.297,235.52,180.297z"/>
<circle style="fill:#FFFFFF;" cx="352.549" cy="202.24" r="35.109"/>
<path style="fill:#C0D0D6;" d="M383.269,184.686c-4.389-1.463-7.314-1.463-11.703-1.463c-19.017,0-35.109,16.091-35.109,35.109
	c0,5.851,1.463,11.703,4.389,16.091c-13.166-4.389-23.406-17.554-23.406-32.183c0-19.017,16.091-35.109,35.109-35.109
	C365.714,167.131,377.417,174.446,383.269,184.686z"/>
<path d="M352.549,250.514c-27.794,0-49.737-21.943-49.737-49.737s21.943-49.737,49.737-49.737s49.737,21.943,49.737,49.737
	S380.343,250.514,352.549,250.514z M352.549,180.297c-11.703,0-20.48,8.777-20.48,20.48s8.777,20.48,20.48,20.48
	s20.48-8.777,20.48-20.48C373.029,190.537,364.251,180.297,352.549,180.297z"/>
<g>
</g>
<g>
</g>
<g>
</g>
<g>
</g>
<g>
</g>
<g>
</g>
<g>
</g>
<g>
</g>
<g>
</g>
<g>
</g>
<g>
</g>
<g>
</g>
<g>
</g>
<g>
</g>
<g>
</g>
</svg>
